# xmcd
#
# Track frame offsets: 
#        150
#        13518
#        29293
#        45418
#        63543
#        78530
#        92443
#        109093
#        137518
#        150118
#
# Disc length: 2283 seconds
#
# Revision: 0
# Processed by: cddbd v1.5.2PL0 Copyright (c) Steve Scherf et al.
# Submitted via: ExactAudioCopy v1.0b3
#
DISCID=6908e90a
DTITLE=Farlow, Billy C. - I Ain't Never Had Too Much Fun
DYEAR=1991
DGENRE=Blues
TTITLE0=Too Much Fun
TTITLE1=Honey Girl
TTITLE2=Love Bandit
TTITLE3=Sit On Daddy's Knee
TTITLE4=You Left Your Mark On Me
TTITLE5=Demon Lover
TTITLE6=Jerry's Playhouse
TTITLE7=Oh Babe
TTITLE8=Don't Play In Your Own Backyard
TTITLE9=Magnolia Band
EXTD=
EXTT0=
EXTT1=
EXTT2=
EXTT3=
EXTT4=
EXTT5=
EXTT6=
EXTT7=
EXTT8=
EXTT9=
PLAYORDER=
